<?xml version="1.0" encoding="UTF-8"?>
<svg id="Capa_1" xmlns="http://www.w3.org/2000/svg" version="1.1" viewBox="0 0 200 200">
  <!-- Generator: Adobe Illustrator 29.1.0, SVG Export Plug-In . SVG Version: 2.1.0 Build 142)  -->
  <defs>
    <style>
      .st0 {
        fill: #243773;
      }

      .st1 {
        fill: #e10a19;
      }

      .st2 {
        fill: #ededed;
      }
    </style>
  </defs>
  <rect class="st2" x="0" y="0" width="200" height="200"/>
  <path class="st0" d="M33.23,138.08l10.84-18.99c4.29,2.8,9.52,5.24,15.46,7.2l-6.73,11.8h-19.56ZM52.73,103.91l14.76-25.87,3.88-6.79,23.71-41.55,24.84,41.97,4.18,7.06,14.14,23.89c-3.96,2.47-9.48,4.57-16.07,6.13l-26.8-45.28-26.18,45.87c-6.54-1.35-12.17-3.21-16.46-5.44M147.14,117.7l21.53,36.38h-19.7l-16.93-28.61c5.9-2.14,11.01-4.77,15.1-7.77"/>
  <path class="st1" d="M31.33,100.3c0-13.19,16.59-24.47,40.04-29.04l-3.88,6.79c-14.29,3.23-23.79,8.95-23.79,15.47,0,9.5,20.14,17.3,45.88,18.17l6.01,9.24-6.83,10.46c-32.21-1.45-57.44-14.81-57.44-31.08M119.91,71.68c22.35,4.82,37.96,15.82,37.96,28.62,0,16.7-26.59,30.34-60.03,31.17l6.88-10.54-6.01-9.24c25.93-.8,46.28-8.63,46.28-18.18,0-6.07-8.24-11.45-20.91-14.77l-4.18-7.07Z"/>
</svg>